<?xml version="1.0" encoding="UTF-8" standalone="no"?>
<!-- Created with Inkscape (http://www.inkscape.org/) -->

<svg
   version="1.1"
   id="svg1"
   width="200"
   height="200"
   viewBox="0 0 200 200"
   sodipodi:docname="blog-logo.png"
   xmlns:inkscape="http://www.inkscape.org/namespaces/inkscape"
   xmlns:sodipodi="http://sodipodi.sourceforge.net/DTD/sodipodi-0.dtd"
   xmlns="http://www.w3.org/2000/svg"
   xmlns:svg="http://www.w3.org/2000/svg">
  <defs
     id="defs1" />
  <sodipodi:namedview
     id="namedview1"
     pagecolor="#505050"
     bordercolor="#eeeeee"
     borderopacity="1"
     inkscape:showpageshadow="0"
     inkscape:pageopacity="0"
     inkscape:pagecheckerboard="0"
     inkscape:deskcolor="#505050" />
  <g
     inkscape:groupmode="layer"
     inkscape:label="Image"
     id="g1">
    <path
       style="fill:#000000"
       d="M 73,159.5 V 152 l 3.75,0.0153 c 5.289875,0.0216 6.667451,1.14744 5.927998,4.8447 -0.336869,1.68434 -0.177228,3.33145 0.354757,3.66023 C 83.56474,160.84903 84,161.73433 84,162.48759 84,165.03248 80.916694,167 76.928571,167 H 73 Z m 6.811841,2.76148 C 79.309829,159.65475 76,159.36403 76,161.92668 76,163.35777 76.642225,164 78.073324,164 c 1.431099,0 1.969616,-0.53852 1.738517,-1.73852 z M 79.5,156 c 0,-0.80994 -0.7875,-1.62427 -1.75,-1.80963 C 76.522151,153.95391 76,154.49385 76,156 c 0,1.50615 0.522151,2.04609 1.75,1.80963 0.9625,-0.18536 1.75,-0.99969 1.75,-1.80963 z m 7.5,3.5 c 0,-6 0.3,-7.5 1.5,-7.5 1.166667,0 1.5,1.33333 1.5,6 v 6 h 3 c 2,0 3,0.5 3,1.5 0,1.11111 -1.166667,1.5 -4.5,1.5 H 87 Z m 12.982256,4.75031 c -2.520174,-3.20388 -2.164014,-8.91302 0.686044,-10.99703 2.28441,-1.67041 7.48677,-1.59159 9.86784,0.14949 2.5906,1.89429 2.61187,8.67122 0.0361,11.51736 -2.8039,3.09827 -7.87853,2.7773 -10.590034,-0.66982 z M 109,159.58726 c 0,-6.81926 -6.16563,-7.29829 -6.82871,-0.53055 -0.22533,2.29979 0.21127,3.74986 1.38814,4.6104 2.71522,1.98542 5.44057,-0.0583 5.44057,-4.07985 z m 9.3997,6.67365 C 116.79302,165.1498 115,161.42617 115,159.2006 c 0,-1.06199 0.93266,-3.11657 2.07258,-4.56574 1.61049,-2.04741 2.94821,-2.63486 6,-2.63486 2.89942,0 3.92742,0.41026 3.92742,1.56739 0,1.10225 -0.5823,1.38257 -1.96223,0.9446 C 121.67972,153.44618 119,155.65999 119,159.5 c 0,3.49682 2.18861,5.69996 4.75,4.78154 C 125.51225,163.64966 125.31039,161 123.5,161 c -0.825,0 -1.5,-0.70489 -1.5,-1.56642 0,-1.11887 0.78573,-1.47602 2.75,-1.25 2.48893,0.28638 2.75,0.69616 2.75,4.31642 0,3.95651 -0.0435,4.00284 -4,4.26091 -2.2,0.1435 -4.49513,-0.0815 -5.1003,-0.5 z M 156,141.0714 c -7.75636,-2.08595 -13.75258,-5.03725 -18.24097,-8.97811 -3.20713,-2.8159 -3.4046,-2.856 -7.2778,-1.47787 -9.82909,3.49729 -34.076296,5.03257 -47.98123,3.03806 C 61.787167,130.68245 40.234622,118.90203 30.991336,105.49933 25.812711,97.990352 24.074268,94.125507 22.82327,87.340369 20.110371,72.626211 28.161033,56.06736 42.879743,46.087589 47.75527,42.781821 58.531481,36.75438 60,36.511742 c 0.275,-0.04544 1.454208,-0.613803 2.620462,-1.263034 3.154669,-1.756146 13.010631,-4.116003 26.028627,-6.23215 8.10251,-1.317108 21.837271,-0.634262 33.288531,1.654993 11.56326,2.311645 23.48832,7.246402 34.06238,14.095487 5.48047,3.549839 15.49031,14.87468 18.63895,21.087561 2.5822,5.095168 2.86105,6.622172 2.86105,15.667084 0,9.360828 -0.22243,10.473465 -3.37313,16.872836 -3.375,6.854931 -14.30514,18.892511 -18.30802,20.162981 -1.00037,0.3175 -1.80869,1.33445 -1.79626,2.25989 0.0345,2.57414 5.95436,11.52179 11.34274,17.14426 L 170.1939,143 166.34695,142.9097 C 164.23113,142.86009 159.575,142.03284 156,141.0714 Z m 0.29249,-6.3214 C 153.42711,131.61444 149,122.93374 149,120.45082 c 0,-1.3836 2.1262,-3.62625 6.44302,-6.79588 8.01532,-5.88526 11.09398,-9.48898 14.74045,-17.25442 2.27096,-4.836204 2.8779,-7.56562 2.93045,-13.178452 0.072,-7.69622 -0.30271,-9.573465 -3.18028,-15.930735 C 167.89619,62.790115 150.86673,45 148.59542,45 c -0.74279,0 -1.91976,-0.685875 -2.61548,-1.524166 -0.69572,-0.838291 -1.46892,-1.320188 -1.71822,-1.070883 -0.24931,0.249306 -1.87269,-0.342503 -3.6075,-1.315132 C 133.05304,36.828211 120.79897,34.183582 105,33.395061 92.728726,32.782606 82.487276,34.381909 64.5,39.719533 41.180916,46.639342 25.651051,65.443909 27.336359,84.719679 c 0.619501,7.085563 3.218284,12.270961 11.078044,22.104211 8.758093,10.95715 23.127054,18.50988 41.252478,21.68348 14.760644,2.58446 24.007689,2.14497 50.832239,-2.41593 4.51656,-0.76793 5.28139,-0.61247 7.92323,1.61049 4.45985,3.75271 12.33799,7.46747 19.50196,9.19571 0.23338,0.0563 -0.50094,-0.91014 -1.63182,-2.14764 z M 64.406421,106.61673 c -0.665582,-1.73448 1.788349,-7.686793 5.649859,-13.704435 3.48412,-5.42953 16.475132,-15.41728 44.43053,-34.159082 13.04584,-8.746168 19.89127,-12.747795 21.81094,-12.75 5.56345,-0.0064 9.7639,7.953911 6.45225,12.227686 -1.79548,2.317111 -57.429018,42.563801 -62.229525,45.018391 -3.523727,1.80174 -12.593003,4.70529 -14.80186,4.73884 -0.429761,0.007 -1.020249,-0.6106 -1.312194,-1.3714 z m 13.600901,-4.23634 c 3.57937,-1.43218 3.852217,-1.76261 2.357756,-2.855389 C 79.358669,98.789097 78.930321,97.623963 79.306135,96.644608 79.760064,95.461688 79.384585,95 77.968615,95 76.726322,95 76,94.323591 76,93.166667 c 0,-3.724799 -1.482009,-3.096859 -4.68672,1.985803 -3.076984,4.88009 -3.183197,5.33379 -1.646251,7.03209 2.018351,2.23026 3.187176,2.2577 8.340293,0.19583 z m 7.58817,-4.534898 c 0.442079,-0.7153 0.274316,-0.883063 -0.440984,-0.440984 -2.024591,1.251267 -1.239051,-0.513394 1.095492,-2.460946 2.848018,-2.37591 4.426538,-2.493429 2.622445,-0.195238 -0.806001,1.026746 0.0721,0.695529 2.127555,-0.802508 1.925,-1.402959 11.70433,-8.52786 21.73183,-15.833114 l 18.23184,-13.28228 -1.38682,-2.665211 c -0.76275,-1.465866 -2.47559,-3.681942 -3.8063,-4.924614 l -2.41947,-2.259403 -13.42554,9.157892 c -7.38405,5.036841 -17.963364,12.534596 -23.509593,16.661678 -9.452998,7.034204 -10.016213,7.650217 -9,9.843709 0.596229,1.286958 1.708959,2.343434 2.472734,2.347725 0.763774,0.0043 4.363774,-2.40307 8,-5.349692 C 97.639313,79.741064 126,60.164885 126,61.335879 c 0,0.311245 -6.6375,5.160453 -14.75,10.776017 -24.55435,16.996799 -32.222557,23.934329 -28.874106,26.122791 1.586992,1.037218 2.398666,0.9391 3.219598,-0.389195 z M 90,92.667606 C 90,91.845211 128.1177,63.784367 128.59139,64.258052 128.98335,64.650021 92.79517,92.024457 90.81572,92.833333 90.367074,93.016667 90,92.942089 90,92.667606 Z M 79,89.325817 C 79,87.695738 122.01601,57 124.30036,57 125.45998,57 122.32083,59.292707 104.5,71.461368 97.35,76.343629 88.6875,82.550856 85.25,85.255206 81.8125,87.959556 79,89.791331 79,89.325817 Z m 52.12781,-30.087006 c -0.51841,-0.968654 -1.96701,-2.656154 -3.21912,-3.75 -1.67692,-1.464964 -1.50377,-1.001081 0.65738,1.76116 3.19617,4.085153 4.03018,4.732641 2.56174,1.98884 z m 8.13241,-0.77928 c 3.09464,-2.869513 3.203,-3.348769 1.56834,-6.936455 -1.65175,-3.62519 -5.03012,-4.179657 -9.3184,-1.529357 l -3.55162,2.195026 3.02073,3.440424 c 1.6614,1.892233 3.02073,3.874765 3.02073,4.405627 0,1.748767 2.4746,1.007704 5.26022,-1.575265 z"
       id="path1" />
    <path
       style="fill:#ffff00;stroke-width:0"
       d="m 133.98396,59.673014 c -0.56957,-1.287611 -1.44535,-2.454366 -4.09326,-5.453245 l -1.67188,-1.893487 0.62675,-0.475805 c 1.09273,-0.829546 4.327,-2.607382 5.45769,-3.000014 0.64274,-0.223193 1.63563,-0.334038 2.42206,-0.270396 1.87774,0.151957 2.99396,1.071415 4.09836,3.375903 1.38728,2.894774 1.17245,3.786011 -1.49722,6.211434 -1.57887,1.434414 -3.66123,2.707757 -4.42812,2.707757 -0.21044,0 -0.62191,-0.540966 -0.91438,-1.202147 z"
       id="path2" />
    <path
       style="fill:#ffff00;stroke-width:0"
       d="m 82.516532,98.046618 c -0.435573,-0.366512 -0.79195,-0.834446 -0.79195,-1.039856 0,-0.919617 1.273913,-2.720016 3.442153,-4.864734 4.145546,-4.100574 9.804879,-8.420015 25.129275,-19.179722 13.29827,-9.337105 16.56919,-11.829745 15.52334,-11.829745 -1.39688,0 -26.559504,17.435704 -37.531062,26.006054 -4.322196,3.37625 -7.691772,5.654178 -8.363821,5.654178 -0.718178,0 -1.714864,-0.941393 -2.319872,-2.191171 -0.559759,-1.156307 -0.55994,-1.162271 -0.06461,-2.122551 0.620201,-1.202366 4.056954,-3.986711 12.421408,-10.063413 8.621521,-6.26346 27.488277,-19.399981 32.719027,-22.78156 0.66676,-0.431043 0.68481,-0.42402 2.04163,0.794336 2.75327,2.472289 6.4356,7.907217 5.77735,8.527049 -0.14018,0.131993 -6.74136,4.961778 -14.66928,10.732856 -7.92793,5.771077 -17.112751,12.457815 -20.410717,14.859416 -3.297966,2.401601 -6.070167,4.292685 -6.160446,4.202405 -0.09028,-0.09028 -0.02708,-0.30121 0.140445,-0.468737 0.462217,-0.462216 0.371026,-1.231372 -0.14586,-1.230267 -1.322074,0.0028 -5.469755,3.587258 -5.469755,4.726973 0,0.281683 0.912849,0.17646 1.231231,-0.141921 0.481106,-0.481106 0.599912,-0.109248 0.163954,0.513169 -0.540872,0.772203 -1.674606,0.728445 -2.662437,-0.102759 z m 12.232691,-7.734541 c 5.407627,-3.86087 19.201227,-14.234685 26.357597,-19.822892 7.56004,-5.903414 7.61307,-5.947763 7.38478,-6.176053 -0.33532,-0.33532 -13.8443,9.264952 -27.64738,19.647846 -8.305086,6.24722 -10.88283,8.317982 -10.88283,8.742435 0,0.781555 1.144312,0.210016 4.787833,-2.391336 z M 81.374258,88.254368 c 0.957779,-0.655722 3.542321,-2.545979 5.743425,-4.200576 6.136131,-4.612599 9.44969,-6.955302 23.693127,-16.751161 9.08601,-6.248859 12.72675,-8.876585 13.48906,-9.735797 0.48621,-0.548026 0.48513,-0.552675 -0.1287,-0.552392 -2.29551,0.0011 -45.277991,30.550055 -45.277991,32.180487 0,0.516693 0.789957,0.217225 2.481079,-0.940561 z"
       id="path3" />
    <path
       style="fill:#ffff00;stroke-width:0"
       d="m 71.557272,103.50994 c -1.117752,-0.4967 -2.702703,-2.34566 -2.702703,-3.1529 0,-0.854777 1.089281,-2.889634 3.286212,-6.138886 1.827185,-2.702398 2.952543,-3.682839 3.408714,-2.969763 0.135849,0.212355 0.248771,0.883644 0.250939,1.491752 0.005,1.414379 0.862952,2.369252 2.128664,2.369252 1.227967,0 1.458871,0.348287 1.293457,1.950998 -0.136152,1.31919 -0.103053,1.415609 0.793875,2.312536 0.514773,0.514773 0.935951,1.037531 0.935951,1.161681 0,0.3986 -1.134376,0.98723 -3.881436,2.01407 -3.232175,1.20817 -4.471733,1.42428 -5.513673,0.96126 z"
       id="path4" />
    <path
       style="fill:#f5d805;fill-opacity:1;stroke-width:0"
       d="m 153.66795,135.49571 c -3.29353,-1.12122 -8.38055,-3.44459 -11.01135,-5.02918 -0.88069,-0.53046 -2.5643,-1.69501 -3.74135,-2.58788 -1.17705,-0.89288 -2.39326,-1.76238 -2.7027,-1.93223 -0.9952,-0.54625 -4.00277,-0.30547 -11.37343,0.91053 -13.75575,2.26942 -20.71595,2.99608 -28.700124,2.99635 -13.700008,4.6e-4 -28.064296,-3.21627 -39.201699,-8.77881 -8.370948,-4.18084 -14.5328,-9.2352 -20.043828,-16.44129 C 30.894484,96.789079 28.458343,91.978571 27.654481,86.389506 27.265422,83.684474 27.468775,77.65653 28.036884,75.054021 31.184456,60.635001 43.045921,48.049759 59.58816,41.577516 c 2.657804,-1.039881 10.775835,-3.468501 15.830115,-4.735796 11.318173,-2.837884 20.739931,-3.851354 30.373235,-3.267159 15.35998,0.93148 25.51906,3.077 33.74851,7.127429 1.85641,0.9137 3.82552,1.732686 4.37581,1.81997 0.67409,0.106923 1.40554,0.520744 2.24195,1.268402 0.70063,0.62628 1.61504,1.179792 2.09905,1.270592 1.29222,0.242422 4.3431,2.841087 9.54343,8.128859 5.17453,5.261527 9.05354,9.697675 10.92044,12.488923 1.39864,2.091148 3.19694,6.454484 3.7895,9.194713 0.50883,2.353048 0.56374,11.032904 0.0873,13.80094 -0.4439,2.579045 -1.56762,5.697935 -3.29193,9.13678 -3.14414,6.270461 -6.1161,9.702841 -12.93491,14.938861 -2.19434,1.68498 -4.70738,3.78584 -5.58454,4.66859 -1.91576,1.92796 -2.17502,2.78086 -1.50389,4.94737 1.04735,3.38099 4.59226,9.7539 6.98063,12.54952 0.62557,0.73223 1.1374,1.39973 1.1374,1.48333 0,0.29963 -0.6889,0.13293 -3.73231,-0.90313 z M 69.405539,107.35303 c 2.793084,-0.72621 7.860392,-2.47321 10.138646,-3.49539 3.447588,-1.54683 30.968135,-21.045473 53.917845,-38.201452 8.79696,-6.576129 9.86377,-7.524479 10.30065,-9.156832 1.25005,-4.670622 -2.80012,-10.541703 -7.27856,-10.550896 -2.23509,-0.0046 -8.08002,3.359111 -21.94101,12.626825 -28.764273,19.232337 -41.092364,28.802414 -45.023138,34.950666 -2.779993,4.348273 -5.298608,10.143079 -5.298608,12.190999 0,2.36989 1.066865,2.70659 5.184175,1.63608 z"
       id="path5" />
    <path
       style="fill:#f5d805;fill-opacity:1;stroke-width:0"
       d="m 134.28661,59.806556 c -0.55587,-1.028392 -2.88618,-4.111598 -4.5444,-6.012665 l -1.27452,-1.461172 0.63102,-0.479386 c 0.34706,-0.263662 1.74583,-1.06362 3.10837,-1.777685 2.12937,-1.115938 2.68253,-1.298299 3.93813,-1.298299 0.80344,0 1.79707,0.173896 2.20808,0.386435 1.39562,0.721705 3.08815,3.751977 3.08815,5.528966 0,0.76196 -0.22273,1.214964 -1.07144,2.179144 -1.24952,1.419536 -4.45316,3.745867 -5.1585,3.745867 -0.2813,0 -0.67131,-0.342079 -0.92489,-0.811205 z"
       id="path6" />
    <path
       style="fill:#f5d805;fill-opacity:1;stroke-width:0"
       d="m 82.660195,97.922116 c -0.961344,-0.756193 -0.851401,-1.50172 0.4833,-3.277267 2.869389,-3.81713 8.695909,-8.440983 26.509015,-21.037225 14.1857,-10.031185 16.70179,-11.946592 16.26579,-12.382587 -0.3368,-0.336799 -2.05264,0.668839 -8.67248,5.082857 -9.00783,6.00629 -16.91149,11.611164 -26.640929,18.892392 -10.353757,7.748448 -10.770291,7.985042 -11.894135,6.755956 -0.655043,-0.716384 -1.361979,-2.087184 -1.361979,-2.640978 0,-1.447833 7.855008,-7.526983 27.155723,-21.016373 8.82769,-6.169724 16.79592,-11.635269 17.94661,-12.309888 l 0.95818,-0.561759 1.44118,1.363007 c 2.21547,2.095298 5.52276,6.720591 5.52276,7.723657 0,0.206808 -1.361,1.364919 -3.02445,2.573581 -1.66345,1.208661 -7.98456,5.818206 -14.04692,10.243432 -6.06235,4.425228 -11.07487,7.993455 -11.13893,7.929396 -0.0641,-0.06406 2.17404,-1.833169 4.97356,-3.931354 6.11306,-4.581634 17.82528,-13.607574 19.92648,-15.356209 1.42902,-1.189252 1.83002,-1.75139 1.24934,-1.75139 -0.35856,0 -6.32366,4.06291 -12.48219,8.501789 -6.84091,4.93071 -23.106816,17.149995 -24.646079,18.514641 -2.020414,1.791212 -1.372041,2.496175 0.944578,1.027019 2.027156,-1.285585 1.640157,-0.654821 -0.473196,0.771256 -1.912474,1.290523 -1.951433,1.30381 -1.951433,0.665468 0,-0.510379 -0.129718,-0.651344 -0.599371,-0.651344 -0.814217,0 -2.685931,1.279423 -4.129587,2.822808 -1.356696,1.450417 -1.5157,2.067797 -0.532557,2.067797 0.373583,0 0.589835,0.111413 0.49961,0.2574 -0.272021,0.440139 -1.571188,0.282955 -2.28189,-0.276082 z M 82.134077,87.859151 c 1.261264,-0.873092 3.625254,-2.591287 5.25331,-3.818217 4.62834,-3.487984 8.504609,-6.234702 21.235523,-15.047456 12.15852,-8.416524 15.8416,-11.095788 16.02524,-11.657571 0.18871,-0.577295 -1.00966,-0.347003 -2.46328,0.473374 -8.78807,4.959679 -43.291691,29.879229 -43.291691,31.266557 0,0.718824 0.972015,0.353915 3.240898,-1.216687 z"
       id="path7" />
    <path
       style="fill:#f5d805;fill-opacity:1;stroke-width:0"
       d="m 71.288901,103.12409 c -1.117871,-0.6817 -2.176932,-2.02748 -2.176932,-2.7663 0,-1.69731 4.926268,-9.109399 6.054348,-9.109399 0.195734,0 0.389208,0.543182 0.494963,1.389621 0.202889,1.623867 0.731301,2.222879 2.293503,2.59993 l 1.067096,0.257553 0.0768,1.544402 c 0.0625,1.256938 0.218212,1.721257 0.836551,2.494559 0.417865,0.522584 0.759755,1.012914 0.759755,1.089614 0,0.50126 -6.559477,2.98029 -7.881258,2.97857 -0.407908,-5.3e-4 -1.094078,-0.21588 -1.524822,-0.47855 z"
       id="path8" />
  </g>
</svg>
