<?xml version="1.0" encoding="UTF-8" standalone="no"?>
<!-- Created with Inkscape (http://www.inkscape.org/) -->

<svg
   version="1.1"
   id="svg1"
   width="200"
   height="200"
   viewBox="0 0 200 200"
   sodipodi:docname="curriculum-logo.png"
   xmlns:inkscape="http://www.inkscape.org/namespaces/inkscape"
   xmlns:sodipodi="http://sodipodi.sourceforge.net/DTD/sodipodi-0.dtd"
   xmlns="http://www.w3.org/2000/svg"
   xmlns:svg="http://www.w3.org/2000/svg">
  <defs
     id="defs1" />
  <sodipodi:namedview
     id="namedview1"
     pagecolor="#505050"
     bordercolor="#eeeeee"
     borderopacity="1"
     inkscape:showpageshadow="0"
     inkscape:pageopacity="0"
     inkscape:pagecheckerboard="0"
     inkscape:deskcolor="#505050" />
  <g
     inkscape:groupmode="layer"
     inkscape:label="Image"
     id="g1">
    <path
       style="fill:#000000"
       d="m 30.781633,187.5246 c -2.027966,-2.89532 -2.045476,-7.74406 -0.03831,-10.60968 1.883252,-2.68873 9.443292,-3.28716 9.443292,-0.74751 0,1.09516 -0.748808,1.32524 -2.907788,0.89344 -2.266122,-0.45322 -3.148809,-0.13121 -4,1.45926 -2.591463,4.84219 0.02443,9.6831 4.610492,8.53207 1.922284,-0.48246 2.444301,-0.29629 2.100373,0.7491 -0.251722,0.76512 -2.067633,1.52825 -4.035359,1.69583 -2.796197,0.23814 -3.926087,-0.19272 -5.1727,-1.97251 z m 13.976411,0.59638 c -2.184088,-2.18409 -2.243899,-13.42857 -0.07143,-13.42857 1.150345,0 1.5,1.27387 1.5,5.46482 0,4.19504 0.40662,5.67394 1.75,6.36487 3.25201,1.67257 4.25,0.28406 4.25,-5.91302 0,-4.5926 0.335681,-5.91667 1.5,-5.91667 1.17865,0 1.5,1.38498 1.5,6.46482 0,5.36811 -0.32813,6.64042 -1.934259,7.5 -2.822182,1.51038 -6.691982,1.26608 -8.494311,-0.53625 z m 14.428571,-5.92857 v -7.5 h 3.928571 c 2.238096,0 4.604762,0.67619 5.5,1.57143 1.932475,1.93247 1.950201,2.52978 0.148009,4.98744 -1.254792,1.71117 -1.185896,2.32615 0.581559,5.19113 1.904357,3.08689 1.913061,3.24968 0.17342,3.24368 -1.007357,-0.003 -2.598129,-1.35348 -3.535049,-3 -2.178452,-3.82837 -3.79651,-3.82567 -3.79651,0.006 0,2 -0.5,3 -1.5,3 -1.2,0 -1.5,-1.5 -1.5,-7.5 z m 7,-3.04797 c 0,-1.87889 -1.973043,-2.87899 -3.219915,-1.63212 -1.493329,1.49333 -0.179684,4.27066 1.682061,3.55624 0.84582,-0.32457 1.537854,-1.19042 1.537854,-1.92412 z m 7,3.04797 v -7.5 h 4.521439 c 3.870004,0 4.687978,0.36551 5.677346,2.53694 0.94877,2.08231 0.86096,2.83189 -0.489996,4.18284 -1.52787,1.52787 -1.498883,1.88379 0.404214,4.96306 1.684332,2.72531 1.780082,3.31716 0.536651,3.31716 -0.832406,0 -2.478518,-1.35529 -3.658026,-3.01176 -2.389137,-3.35523 -3.991628,-3.12609 -3.991628,0.57078 0,1.50309 -0.576338,2.44098 -1.5,2.44098 -1.2,0 -1.5,-1.5 -1.5,-7.5 z m 6.623808,-4.30476 c -1.929188,-1.92919 -4.262651,-0.30242 -3.271427,2.28067 0.503402,1.31184 1.013044,1.39889 2.749447,0.46959 1.959131,-1.04849 2.001342,-1.2709 0.52198,-2.75026 z m 7.376197,4.30476 c 0,-6 0.3,-7.5 1.5,-7.5 1.2,0 1.5,1.5 1.5,7.5 0,6 -0.3,7.5 -1.5,7.5 -1.2,0 -1.5,-1.5 -1.5,-7.5 z m 8.59501,5.33219 c -2.02796,-2.89532 -2.04547,-7.74406 -0.0383,-10.60968 1.88326,-2.68873 9.4433,-3.28716 9.4433,-0.74751 0,1.09516 -0.74881,1.32524 -2.90779,0.89344 -2.26612,-0.45322 -3.14881,-0.13121 -4,1.45926 -2.59147,4.84219 0.0244,9.6831 4.61049,8.53207 1.92229,-0.48246 2.4443,-0.29629 2.10038,0.7491 -0.25172,0.76512 -2.06764,1.52825 -4.03536,1.69583 -2.7962,0.23814 -3.92609,-0.19272 -5.17271,-1.97251 z m 13.97642,0.59638 c -2.18409,-2.18409 -2.2439,-13.42857 -0.0714,-13.42857 1.15034,0 1.5,1.27387 1.5,5.46482 0,4.19504 0.40662,5.67394 1.75,6.36487 3.25201,1.67257 4.25,0.28406 4.25,-5.91302 0,-4.5926 0.33568,-5.91667 1.5,-5.91667 1.17865,0 1.5,1.38498 1.5,6.46482 0,5.36811 -0.32813,6.64042 -1.93426,7.5 -2.82218,1.51038 -6.69198,1.26608 -8.49431,-0.53625 z m 14.42857,-5.92857 c 0,-6 0.3,-7.5 1.5,-7.5 1.16667,0 1.5,1.33333 1.5,6 v 6 h 3 c 2,0 3,0.5 3,1.5 0,1.11111 -1.16667,1.5 -4.5,1.5 h -4.5 z m 13.65499,5.67126 c -2.24487,-2.48055 -2.37067,-13.17126 -0.15499,-13.17126 1.15034,0 1.5,1.27387 1.5,5.46482 0,4.19504 0.40662,5.67394 1.75,6.36487 3.25201,1.67257 4.25,0.28406 4.25,-5.91302 0,-5.36181 0.19883,-5.91667 2.12019,-5.91667 1.96955,0 2.08979,0.42033 1.69228,5.91586 -0.23536,3.25372 -1.01954,6.62872 -1.74264,7.5 -1.79458,2.16234 -7.36763,2.01755 -9.41484,-0.2446 z m 14.34501,-5.67126 c 0,-7.17572 0.1002,-7.5 2.31738,-7.5 1.94222,0 2.61376,0.93086 4.14819,5.75 l 1.83081,5.75 1.93514,-5.75 c 1.64234,-4.87996 2.30082,-5.75 4.35181,-5.75 2.34074,0 2.41667,0.23563 2.41667,7.5 0,5.88529 -0.3122,7.5 -1.4501,7.5 -1.06389,0 -1.52996,-1.53138 -1.75,-5.75 l -0.2999,-5.75 -1.94396,5.78597 c -2.45098,7.29506 -4.35849,7.21172 -6.71164,-0.29325 l -1.72221,-5.49272 -0.0611,5.75 c -0.0469,4.41729 -0.40875,5.75 -1.56109,5.75 -1.2,0 -1.5,-1.5 -1.5,-7.5 z M 38.30811,156.99599 c -1.858178,-0.92282 -4.222467,-3.05615 -5.253975,-4.74072 -1.747483,-2.85384 -1.858138,-5.28075 -1.621495,-35.56286 l 0.253975,-32.500002 10.75,-0.28383 10.75,-0.28383 V 54.126456 c 0,-32.782225 0.33105,-34.836419 6.189824,-38.408415 3.183858,-1.941145 4.945308,-2.018301 46.159051,-2.021897 46.97029,-0.0041 47.48271,0.05542 50.94507,5.916712 1.56031,2.641394 1.70606,8.365237 1.70606,66.998532 v 64.110392 l -3.42266,3.73532 -3.42265,3.73531 -54.82735,0.24072 c -49.612744,0.21782 -55.148673,0.0811 -58.20585,-1.43714 z m 11.955428,-6.22666 2.923077,-2.92307 V 118.26933 88.692408 h -9 -9 l 0.05644,27.750002 c 0.06077,29.87901 0.595036,33.76522 4.943558,35.95919 3.959438,1.99766 6.927815,1.51684 10.076923,-1.63227 z m 95.423082,-13.57692 c 0,-1.96177 -0.75393,-2.005 -39.43822,-2.26178 -23.791512,-0.15792 -39.812975,0.11297 -40.38279,0.68279 -0.519508,0.5195 -0.671946,1.65498 -0.33875,2.52327 0.54023,1.40782 4.911759,1.55041 40.38279,1.31722 39.02314,-0.25654 39.77697,-0.2994 39.77697,-2.2615 z m 0,-16 c 0,-1.96177 -0.75393,-2.005 -39.43822,-2.26178 -23.791512,-0.15792 -39.812975,0.11297 -40.38279,0.68279 -0.519508,0.5195 -0.671946,1.65498 -0.33875,2.52327 0.54023,1.40782 4.911759,1.55041 40.38279,1.31722 39.02314,-0.25654 39.77697,-0.2994 39.77697,-2.2615 z m 0,-16 c 0,-1.96177 -0.75393,-2.00501 -39.43822,-2.26178 -23.791512,-0.15792 -39.812975,0.11297 -40.38279,0.68278 -0.519508,0.51951 -0.671946,1.65499 -0.33875,2.52328 0.54023,1.40782 4.911759,1.55041 40.38279,1.31722 39.02314,-0.25654 39.77697,-0.2994 39.77697,-2.2615 z m 0.31955,-16.250002 0.31955,-2.25 h -40.01053 c -26.813959,0 -40.224147,0.34562 -40.658171,1.04789 -0.356196,0.57633 -0.394892,1.70651 -0.08599,2.51149 0.482358,1.25701 6.176603,1.4267 40.338611,1.20212 l 39.77698,-0.2615 z m 0,-16 0.31955,-2.25 h -40.01053 c -26.714409,0 -40.22492,0.34687 -40.655648,1.0438 -0.354809,0.5741 -0.09698,1.70427 0.572962,2.51149 1.03976,1.25284 6.944402,1.42941 40.336096,1.2062 l 39.11802,-0.26149 z m -52.4507,-10.95386 c 2.71064,-1.389335 2.84181,-1.75191 2.37843,-6.574443 -0.3727,-3.878698 -1.11022,-5.637129 -3.07211,-7.324678 -2.3335,-2.007192 -3.50455,-2.196514 -12.1821,-1.969452 -11.200827,0.293088 -12.425836,1.040114 -13.519135,8.24415 -0.919317,6.05762 -0.533679,7.000277 3.364488,8.224179 7.405535,2.325104 17.854837,2.052985 23.030427,-0.599756 z m 52.15822,-12.339947 c 0.35481,-0.574093 0.10127,-1.699093 -0.56342,-2.5 -0.97762,-1.177949 -4.7088,-1.456195 -19.52708,-1.456195 -18.33847,0 -20.27936,0.361348 -19.05657,3.547887 0.46006,1.198878 3.86583,1.452113 19.5296,1.452113 12.10036,0 19.20603,-0.378078 19.61747,-1.043805 z M 85.17227,42.700083 c 2.49568,-1.335645 4.35922,-7.355805 3.57349,-11.544114 -1.11558,-5.946536 -7.876414,-8.456492 -12.560901,-4.663225 -3.293684,2.667064 -3.30218,11.182784 -0.01465,14.682202 2.473567,2.632992 5.859988,3.206722 9.002061,1.525137 z m 38.51435,-8.507677 c 0,-1.806467 -0.76495,-2.028532 -7.90514,-2.294857 -8.13003,-0.303245 -10.31719,0.470106 -9.24341,3.268337 0.5112,1.33217 2.03453,1.558062 8.88278,1.317217 7.5022,-0.263843 8.26577,-0.475451 8.26577,-2.290697 z"
       id="path1" />
    <path
       style="fill:#f5d805;stroke-width:0"
       d="m 78.992109,42.840791 c -3.325094,-1.568031 -4.978494,-4.612097 -4.978494,-9.16588 0,-4.27488 1.1567,-6.690133 3.821898,-7.980333 3.770783,-1.825405 8.298482,-0.128148 10.112968,3.790956 1.753922,3.788293 0.190622,10.658465 -2.955221,12.98719 -1.38575,1.025807 -4.235712,1.200603 -6.001151,0.368067 z"
       id="path2" />
    <path
       style="fill:#f5d805;stroke-width:0"
       d="m 74.259863,63.300561 c -1.601684,-0.285688 -3.809106,-0.967174 -4.905384,-1.514415 -2.545957,-1.270893 -2.769945,-2.041952 -2.030255,-6.988964 0.874024,-5.845441 1.939532,-7.215832 6.209206,-7.985906 3.035143,-0.547414 15.355278,-0.578756 16.741651,-0.04259 2.921597,1.129899 4.551734,3.333815 5.246752,7.093514 0.650038,3.516379 0.521151,5.894919 -0.367587,6.783657 -2.793162,2.793162 -12.911016,4.078669 -20.894383,2.654703 z"
       id="path3" />
  </g>
</svg>
