<?xml version="1.0" encoding="UTF-8" standalone="no"?>
<!-- Created with Inkscape (http://www.inkscape.org/) -->

<svg
   version="1.1"
   id="svg1"
   width="200"
   height="200"
   viewBox="0 0 200 200"
   sodipodi:docname="Descargar.png"
   xmlns:inkscape="http://www.inkscape.org/namespaces/inkscape"
   xmlns:sodipodi="http://sodipodi.sourceforge.net/DTD/sodipodi-0.dtd"
   xmlns="http://www.w3.org/2000/svg"
   xmlns:svg="http://www.w3.org/2000/svg">
  <defs
     id="defs1" />
  <sodipodi:namedview
     id="namedview1"
     pagecolor="#505050"
     bordercolor="#eeeeee"
     borderopacity="1"
     inkscape:showpageshadow="0"
     inkscape:pageopacity="0"
     inkscape:pagecheckerboard="0"
     inkscape:deskcolor="#505050" />
  <g
     inkscape:groupmode="layer"
     inkscape:label="Image"
     id="g1">
    <path
       style="fill:#000000"
       d="M 46.666667,138.33333 C 46.3,137.96667 46,118.6325 46,95.368517 46,54.573032 46.068716,53.033592 47.934259,52.035184 49.119599,51.400809 59.545963,51 74.86283,51 c 20.563672,0 25.25276,0.25845 26.45229,1.457979 0.80189,0.801889 3.32067,4.851889 5.59728,9 L 111.0517,69 h 24.36716 c 21.29717,0 24.44364,0.199287 24.97415,1.581787 C 160.72686,71.451771 161,86.661771 161,104.38179 c 0,23.72527 -0.31633,32.53454 -1.2,33.41821 -0.90457,0.90457 -14.8963,1.2 -56.83333,1.2 -30.598337,0 -55.933337,-0.3 -56.300003,-0.66667 z M 154,104.0181 V 75.036197 L 130.3583,74.768099 106.71661,74.5 102.1083,66.253075 97.5,58.006151 75.25,58.003075 53,58 V 95.5 133 h 50.5 50.5 z m -61.329505,16.53718 c -6.996939,-6.60386 -7.710972,-7.61113 -6.714816,-9.47246 1.626145,-3.03848 3.544658,-2.58458 8.540746,2.02065 l 4.451738,4.10347 0.275919,-15.74588 c 0.235049,-13.413579 0.522713,-15.901337 1.942098,-16.795476 1.20814,-0.761067 2.10157,-0.688259 3.25,0.264849 C 105.74029,86.02935 106,88.8637 106,102.21556 v 15.97068 l 4.88878,-4.09312 C 113.57761,111.8419 116.44751,110 117.26634,110 c 2.18793,0 4.03936,2.63461 3.06265,4.35821 -1.47388,2.60097 -16.04548,13.64266 -17.96659,13.61426 -1.02432,-0.0152 -5.385677,-3.35288 -9.691905,-7.41719 z"
       id="path1" />
    <path
       style="fill:#f5d805;stroke-width:0"
       d="M 53.153153,95.495495 V 58.043758 h 22.104528 22.104527 l 4.584842,8.208973 4.58484,8.208973 2.84731,0.152126 c 1.56602,0.08367 12.20059,0.227091 23.63238,0.318717 l 20.78507,0.166593 v 28.92405 28.92404 H 103.4749 53.153153 Z m 50.527587,32.143335 c 3.53252,-1.79162 14.8707,-10.56685 16.36556,-12.66618 0.82894,-1.16415 0.73466,-2.64173 -0.23935,-3.75107 -0.97383,-1.10913 -2.20314,-1.56373 -3.2018,-1.18405 -1.18744,0.45147 -3.94691,2.41377 -7.21004,5.12717 l -3.0888,2.56845 -0.1658,-14.20763 c -0.19404,-16.627517 -0.334,-17.903896 -2.08004,-18.968454 -1.0013,-0.610495 -1.76742,-0.650031 -2.75,-0.141921 -1.46272,0.756405 -1.764354,2.546407 -2.08185,12.354466 -0.137714,4.254189 -0.252149,10.302639 -0.254303,13.440999 -0.0022,3.13836 -0.07372,5.888 -0.15903,6.11032 -0.118232,0.3081 -0.77617,-0.16151 -2.767053,-1.97502 -4.451629,-4.05503 -6.30469,-5.3369 -7.714978,-5.3369 -1.322522,0 -2.74767,1.78373 -2.74767,3.43901 0,1.17339 1.071042,2.50651 5.265158,6.5535 5.364579,5.1764 10.298496,9.05511 11.518546,9.05511 0.26822,0 0.85837,-0.18801 1.31145,-0.4178 z"
       id="path2" />
  </g>
</svg>
