<?xml version="1.0" encoding="UTF-8" standalone="no"?>
<!-- Created with Inkscape (http://www.inkscape.org/) -->

<svg
   width="16"
   height="16"
   viewBox="0 0 16 16"
   version="1.1"
   id="svg1"
   xml:space="preserve"
   xmlns="http://www.w3.org/2000/svg"
   xmlns:svg="http://www.w3.org/2000/svg"><defs
     id="defs1" /><g
     id="layer1"><rect
       style="fill:#f5d805;fill-opacity:1;stroke-width:0;stroke-dasharray:none;paint-order:normal;image-rendering:optimizeSpeed"
       id="rect1"
       width="16"
       height="16"
       x="0"
       y="0" /><path
       style="fill:#000000;stroke-width:1.44835"
       d="M 7.388758,14.487992 C 6.7481302,14.427193 5.9791664,14.222152 5.3511111,13.944658 3.3982197,13.081811 1.9916689,11.289564 1.5781878,9.1371388 1.4750156,8.6000634 1.473699,7.3936575 1.5757208,6.8765576 1.8902505,5.2823551 2.6408497,3.9796311 3.797724,3.0200961 4.7101897,2.2632785 5.6674782,1.8146046 6.8793463,1.5757632 7.390875,1.4749479 8.6070239,1.4746977 9.1207587,1.5753021 c 1.6245123,0.3181265 2.9577283,1.1010585 3.9280883,2.3067734 0.716005,0.8896686 1.14743,1.8285477 1.375997,2.9944821 0.09982,0.5091741 0.100303,1.7267915 8.83e-4,2.2402159 C 14.127393,10.6575 13.343053,12.018989 12.208543,12.96544 11.32291,13.704271 10.352288,14.1689 9.2226397,14.39477 8.8404581,14.47118 7.7798031,14.525099 7.388758,14.488 Z M 6.8446607,13.648117 C 6.1001089,12.845002 5.696139,12.307072 5.4932664,11.848585 5.3412015,11.504922 5.3701883,11.321227 5.6121335,11.095319 c 0.058165,-0.05431 0.1057552,-0.123567 0.1057552,-0.153904 0,-0.06725 -0.2361338,-0.541609 -0.2696105,-0.541609 -0.013158,0 -0.2883586,0.08475 -0.611562,0.188336 -0.6549533,0.209908 -0.8537874,0.328128 -1.036685,0.616373 -0.1597609,0.251782 -0.2013866,0.416441 -0.1981469,0.783807 l 0.0027,0.305484 0.3138881,0.277553 c 0.5603533,0.495488 1.1903604,0.88432 1.8605517,1.148308 0.3469495,0.136667 1.1312941,0.341548 1.3172642,0.344093 l 0.1354332,0.0019 z m 1.2234781,0.305484 c 0.024868,-0.06161 0.1236801,-0.280709 0.2195971,-0.486897 L 8.4621308,13.091818 8.3029018,12.458608 8.1436727,11.825397 H 8.0000523 7.8564307 l -0.1590829,0.632634 -0.1590843,0.632632 0.1790144,0.39583 c 0.098454,0.217706 0.197775,0.436927 0.2207065,0.487156 0.054222,0.118782 0.07545,0.115518 0.1301587,-0.02005 z m 1.4048596,-0.0048 c 1.0107366,-0.25513 1.8266306,-0.685944 2.6086406,-1.377429 l 0.313888,-0.277552 0.0027,-0.305485 c 0.0032,-0.367366 -0.03839,-0.532025 -0.198148,-0.783807 -0.183804,-0.289677 -0.386309,-0.410247 -1.038567,-0.618363 -0.321218,-0.102492 -0.595183,-0.186346 -0.608815,-0.186346 -0.0341,0 -0.270474,0.473341 -0.270474,0.541609 0,0.03034 0.04758,0.09959 0.105749,0.153905 0.239069,0.223222 0.27352,0.430925 0.124468,0.750444 -0.12722,0.272743 -0.201168,0.331793 -0.337646,0.269641 -0.08842,-0.04026 -0.102066,-0.06855 -0.08634,-0.179096 0.01032,-0.0722 0.04875,-0.199068 0.08551,-0.281922 l 0.06683,-0.150645 -0.162683,-0.187866 c -0.2200066,-0.254035 -0.228446,-0.434632 -0.03698,-0.790926 0.06534,-0.121592 0.118791,-0.235963 0.118791,-0.254162 0,-0.0182 -0.1604628,-0.113646 -0.3565878,-0.212102 L 9.4467588,9.8796749 v 0.6164631 c 0,0.836528 -0.156242,1.517023 -0.6067995,2.64284 -0.096376,0.240823 -0.1671007,0.43786 -0.1571607,0.43786 0.024825,0 0.482652,-0.494454 0.7448514,-0.804441 0.2165717,-0.256045 0.3336037,-0.310896 0.4388641,-0.205693 0.1045751,0.104513 0.044677,0.233492 -0.2829159,0.609207 C 9.401098,13.38522 9.140299,13.671029 9.0040458,13.811042 L 8.756313,14.065613 h 0.1269194 c 0.069802,0 0.3351905,-0.05257 0.5897402,-0.116821 z M 7.207294,13.261171 C 7.0295638,12.839847 6.8018118,12.165177 6.701987,11.7643 6.5648286,11.2135 6.5216556,10.834131 6.5404079,10.344483 L 6.5583027,9.8772102 6.1992242,10.057454 c -0.1974931,0.09914 -0.3590784,0.195461 -0.3590784,0.214059 0,0.0186 0.054683,0.132964 0.12152,0.254161 0.085598,0.15521 0.1217396,0.276808 0.1222584,0.411343 6.368e-4,0.164759 -0.021608,0.2168 -0.1619439,0.37886 l -0.1626821,0.187864 0.062941,0.150645 c 0.1502945,0.359725 0.5474534,0.914721 1.0259486,1.433678 0.1549164,0.168015 0.316487,0.346724 0.3590448,0.397129 0.1364509,0.161603 0.1364653,0.09933 6.14e-5,-0.224022 z m 0.2114116,-1.243612 c 0.080825,-0.313953 0.080839,-0.317939 0.00244,-0.417496 -0.060514,-0.07689 -0.1173592,-0.100516 -0.241908,-0.100516 -0.1356483,0 -0.1593987,0.01185 -0.1423991,0.07128 0.1684724,0.588791 0.2480984,0.822025 0.2716477,0.795678 0.015709,-0.01758 0.065287,-0.174609 0.1101784,-0.348946 z m 1.5365834,-0.42537 c 0.025183,-0.114625 0.021829,-0.117406 -0.1364222,-0.11344 -0.1218455,0.0031 -0.1823239,0.02958 -0.2428726,0.106518 -0.080194,0.101893 -0.080194,0.104088 -9.517e-4,0.405494 0.043816,0.166677 0.090829,0.330543 0.1044738,0.364145 0.022603,0.0557 0.2095439,-0.461305 0.2757784,-0.762712 z m -5.7077743,-10e-4 C 3.2808806,11.343454 3.4280323,11.02806 3.6035625,10.828069 3.8319249,10.567883 4.1117744,10.420677 4.7619935,10.218714 5.1645978,10.093669 5.6031967,9.9166587 6.0540993,9.6972635 L 6.7367111,9.3651251 V 9.1063105 8.8474945 L 6.4726696,8.5835941 C 6.1796656,8.2907462 5.9610557,7.8910354 5.8834295,7.5062144 5.8443974,7.3127187 5.8209057,7.2741047 5.7187818,7.2355779 5.6532661,7.2108616 5.5621454,7.1291354 5.516292,7.053964 5.4417308,6.9317303 5.4329056,6.8501707 5.4327694,6.2820854 c -1.402e-4,-0.584012 0.00643,-0.6411568 0.08152,-0.7090756 0.067483,-0.061039 0.099342,-0.065824 0.1833881,-0.027552 0.083909,0.038211 0.1017162,0.074998 0.1017162,0.2101185 V 5.919374 h 0.181954 c 0.2165371,0 0.2663279,-0.06447 0.2663279,-0.3448455 0,-0.2490404 0.083798,-0.4368087 0.2503819,-0.5610315 0.1966187,-0.1466208 0.3378073,-0.1586367 0.7073122,-0.060196 0.4527705,0.1206231 1.1365946,0.1206231 1.5893651,0 0.3695053,-0.09844 0.5106933,-0.086424 0.7073117,0.060196 0.166583,0.1242233 0.2503813,0.3119911 0.2503813,0.5610315 0,0.2814423 0.049504,0.3448455 0.2692652,0.3448455 h 0.184891 L 10.193392,5.3049645 10.180201,4.6905547 10.047104,4.5718036 C 9.954958,4.4895784 9.871047,4.453051 9.7743043,4.453051 9.568904,4.453051 9.4274451,4.3130915 9.3822701,4.0651704 9.3576114,3.9297849 9.3106562,3.8320082 9.2408972,3.770804 9.1375843,3.6801442 9.1234376,3.6791636 7.9263345,3.6795573 6.7383396,3.6799479 6.7124042,3.6817234 6.5082785,3.7767226 6.1215454,3.9567606 5.8720753,4.3002378 5.8164193,4.7294679 5.7864116,4.9608938 5.7012063,5.0493417 5.5534311,5.0024647 5.4442747,4.9678382 5.4109111,4.8021551 5.4630585,4.5536739 5.6022237,3.8905543 6.094149,3.4208593 6.7643917,3.3111485 c 0.3308177,-0.054151 2.1941567,-0.049753 2.3971188,0.00566 0.3136321,0.085625 0.5909186,0.3982433 0.5909186,0.6662149 0,0.090257 0.017473,0.1034512 0.1369523,0.1034512 0.1454516,0 0.4096856,0.1536169 0.5150986,0.2994624 0.142312,0.1969019 0.156798,0.3266703 0.159759,1.4316129 0.0027,1.0298448 -0.0021,1.1082083 -0.07831,1.2329489 -0.04469,0.073256 -0.131736,0.1553643 -0.193425,0.1824542 -0.145271,0.063794 -0.158574,0.085443 -0.189049,0.3076691 -0.04215,0.3073843 -0.2940052,0.7611089 -0.58255,1.0495005 l -0.2575121,0.25737 v 0.258816 0.2588146 l 0.6826114,0.3315472 c 0.4469587,0.2170888 0.8927437,0.3969266 1.2912887,0.5209296 0.649471,0.202073 0.930865,0.350257 1.159248,0.610467 0.17553,0.199991 0.322682,0.515385 0.356048,0.763124 0.01433,0.106414 0.04104,0.193472 0.05935,0.193472 0.06301,0 0.566633,-0.800877 0.744687,-1.184229 C 13.884925,9.8936111 14.044617,9.2805522 14.116797,8.4499483 14.230688,7.139374 13.865013,5.7464539 13.104941,4.5956111 11.886899,2.7513439 9.6539965,1.6751451 7.4819804,1.885495 6.1330126,2.0161364 4.8820301,2.5503915 3.9451346,3.3959699 2.767413,4.4589019 2.0853466,5.7756806 1.900119,7.3440208 1.7719369,8.4293562 1.960798,9.5612351 2.4434745,10.600436 c 0.1780547,0.383352 0.6816759,1.184229 0.7446867,1.184229 0.018314,0 0.045022,-0.08707 0.059354,-0.193472 z M 8.2825402,11.351274 8.367177,11.243732 8.2141786,11.108588 C 8.1300286,11.03425 8.0459269,10.972682 8.0272852,10.971746 8.0086382,10.970812 7.911732,11.036928 7.811925,11.118669 l -0.1814668,0.148618 0.090011,0.09577 c 0.1347596,0.14337 0.4450765,0.136872 0.5620617,-0.01171 z M 7.4745601,10.905432 7.7528225,10.677898 7.3772141,10.257038 C 6.9380093,9.7649177 6.9420762,9.7634924 6.9118134,10.420171 l -0.01877,0.407312 0.1285664,0.152743 c 0.07071,0.08401 0.1389433,0.152742 0.1516266,0.152742 0.012613,0 0.1482799,-0.102391 0.3013237,-0.227536 z m 1.5247688,0.03953 C 9.1087476,10.801578 9.1111412,10.787168 9.0897131,10.3987 9.0563599,9.7936573 9.0513579,9.792153 8.6394294,10.26316 l -0.3510486,0.401395 0.2327978,0.212251 c 0.1280375,0.116733 0.2627154,0.212965 0.2992805,0.213839 0.036564,8.73e-4 0.1170583,-0.06468 0.1788654,-0.145683 z M 8.5030331,9.844651 C 8.8347579,9.4567361 8.8558633,9.4209054 8.8558633,9.2456729 V 9.0592895 l -0.1731995,0.063913 c -0.3622514,0.1336516 -1.1008063,0.1106153 -1.4671053,-0.04578 -0.062119,-0.02652 -0.071321,-0.00585 -0.071321,0.1605883 0,0.1851378 0.013473,0.2060974 0.4346549,0.6787264 0.4137559,0.4642408 0.4379415,0.4841528 0.5029822,0.4141068 0.037581,-0.04047 0.227099,-0.259253 0.421156,-0.4861803 z M 8.4950031,8.7720191 C 9.1647778,8.5651372 9.6317077,8.036079 9.7554853,7.3438317 9.8090523,7.0442834 9.9159233,6.896923 10.079615,6.896923 c 0.0934,0 0.121128,-0.080021 0.121128,-0.3495462 V 6.3266864 L 10.047886,6.3257919 C 9.8279601,6.3245046 9.5645797,6.1918271 9.4681525,6.0337536 9.4114507,5.9408136 9.3859092,5.8277482 9.3858088,5.6693171 9.3857,5.5049532 9.3637503,5.4125908 9.3086396,5.3445729 9.2331186,5.251352 9.22664,5.2505939 8.9724271,5.3052004 8.4965746,5.4074208 8.3487719,5.425743 8.0000495,5.425743 7.6513271,5.425743 7.5035244,5.4074212 7.0276704,5.3052004 6.7734658,5.2505936 6.766988,5.2513522 6.691462,5.3445727 6.6363552,5.4125906 6.6144093,5.5049529 6.6143004,5.6693168 6.6141953,5.8277479 6.5886477,5.9408126 6.5319521,6.0337533 6.4355254,6.1918276 6.1721439,6.3245046 5.952217,6.3257919 l -0.1528235,8.945e-4 v 0.2206904 c 0,0.2716651 0.027704,0.3495462 0.1243467,0.3495462 0.1529489,0 0.2737856,0.1691812 0.320012,0.4480432 0.1122566,0.6771935 0.6420551,1.265667 1.3036357,1.4480153 0.2822614,0.077803 0.6545229,0.069562 0.9475957,-0.020958 z"
       id="path1" /></g></svg>
