<?xml version="1.0" encoding="UTF-8" standalone="no"?>
<!-- Created with Inkscape (http://www.inkscape.org/) -->

<svg
   version="1.1"
   id="svg1"
   width="200"
   height="200"
   viewBox="0 0 200 200"
   sodipodi:docname="projects-logo.png"
   xmlns:inkscape="http://www.inkscape.org/namespaces/inkscape"
   xmlns:sodipodi="http://sodipodi.sourceforge.net/DTD/sodipodi-0.dtd"
   xmlns="http://www.w3.org/2000/svg"
   xmlns:svg="http://www.w3.org/2000/svg">
  <defs
     id="defs1" />
  <sodipodi:namedview
     id="namedview1"
     pagecolor="#505050"
     bordercolor="#eeeeee"
     borderopacity="1"
     inkscape:showpageshadow="0"
     inkscape:pageopacity="0"
     inkscape:pagecheckerboard="0"
     inkscape:deskcolor="#505050" />
  <g
     inkscape:groupmode="layer"
     inkscape:label="Image"
     id="g1">
    <path
       style="fill:#000000"
       d="m 39.977249,176.52696 v -7.5 h 3.877555 c 6.884662,0 8.536374,6.21745 2.372445,8.93047 -2.321434,1.02176 -3.25,2.09318 -3.25,3.75 0,1.39514 -0.597788,2.31953 -1.5,2.31953 -1.2,0 -1.5,-1.5 -1.5,-7.5 z m 6.677102,-2.10092 c 0.337883,-0.88051 -0.01374,-1.99862 -0.781385,-2.48469 -2.249907,-1.42463 -2.895717,-1.07101 -2.895717,1.58561 0,2.83252 2.683396,3.48863 3.677102,0.89908 z m 6.322898,2.10092 v -7.5 h 3.928571 c 2.238096,0 4.604762,0.67619 5.5,1.57143 1.932475,1.93247 1.950201,2.52978 0.148009,4.98744 -1.254792,1.71117 -1.185896,2.32615 0.581559,5.19113 1.904357,3.08689 1.913061,3.24968 0.17342,3.24368 -1.007357,-0.003 -2.598129,-1.35348 -3.535049,-3 -2.178452,-3.82837 -3.79651,-3.82567 -3.79651,0.006 0,2 -0.5,3 -1.5,3 -1.2,0 -1.5,-1.5 -1.5,-7.5 z m 7,-3.04797 c 0,-1.87889 -1.973043,-2.87899 -3.219915,-1.63212 -1.493329,1.49333 -0.179684,4.27066 1.682061,3.55624 0.84582,-0.32457 1.537854,-1.19042 1.537854,-1.92412 z m 8.654988,8.71923 c -2.284184,-2.524 -2.180659,-9.38556 0.173753,-11.51627 2.736323,-2.47634 8.706118,-2.15716 10.614555,0.56752 2.186482,3.12164 1.970883,8.36331 -0.443296,10.77749 -2.553554,2.55355 -8.105881,2.64547 -10.345012,0.17126 z m 8.396994,-3.26839 c 1.374412,-2.56811 0.153713,-6.70281 -2.199384,-7.44965 -2.802235,-0.8894 -4.852598,1.27375 -4.852598,5.11953 0,5.19857 4.687857,6.74753 7.051982,2.33012 z m 9.948018,2.05729 c 0,-1.67191 -0.9,-4.80398 -2,-6.96016 -2.400381,-4.70514 -2.428603,-5 -0.478561,-5 0.836791,0 2.034023,1.125 2.660515,2.5 0.626492,1.375 1.444613,2.5 1.818046,2.5 0.373433,0 1.191554,-1.125 1.818046,-2.5 0.626492,-1.375 1.823724,-2.5 2.660515,-2.5 1.966109,0 1.961074,0.0268 -0.966516,5.14793 -1.368375,2.39364 -2.493375,5.58957 -2.5,7.10207 -0.0078,1.77242 -0.545268,2.75 -1.512045,2.75 -1.004368,0 -1.5,-1.00443 -1.5,-3.03984 z m 11,-4.46016 v -7.5 h 4.000001 c 2.2,0 4,0.45 4,1 0,0.55 -1.125,1 -2.5,1 -1.83333,0 -2.5,0.53333 -2.5,2 0,1.46667 0.66667,2 2.5,2 1.375,0 2.5,0.45 2.5,1 0,0.55 -1.125,1 -2.5,1 -1.83333,0 -2.5,0.53333 -2.5,2 0,1.46667 0.66667,2 2.5,2 1.55556,0 2.5,0.56667 2.5,1.5 0,1.08333 -1.11111,1.5 -4,1.5 h -4.000001 z m 12.595021,5.33219 c -2.02797,-2.89532 -2.04548,-7.74406 -0.0383,-10.60968 1.88326,-2.68873 9.4433,-3.28716 9.4433,-0.74751 0,1.09516 -0.74881,1.32524 -2.90779,0.89344 -2.26612,-0.45322 -3.14881,-0.13121 -4,1.45926 -2.59146,4.84219 0.0244,9.6831 4.61049,8.53207 1.92229,-0.48246 2.4443,-0.29629 2.10038,0.7491 -0.25172,0.76512 -2.06764,1.52825 -4.03536,1.69583 -2.7962,0.23814 -3.92609,-0.19272 -5.1727,-1.97251 z m 15.40498,-3.92581 c 0,-5.25262 -0.27603,-6.1658 -2,-6.61663 -3.88128,-1.01498 -1.93272,-2.28975 3.5,-2.28975 3.025,0 5.5,0.45 5.5,1 0,0.55 -0.9,1 -2,1 -1.79487,0 -2,0.66667 -2,6.5 0,5.11111 -0.32051,6.5 -1.5,6.5 -1.16923,0 -1.5,-1.34374 -1.5,-6.09362 z m 11,4.09362 c -2.61443,-2.61443 -2.71152,-9.04611 -0.17126,-11.34501 2.47142,-2.2366 8.42394,-2.13825 10.51627,0.17375 2.32253,2.56636 2.13332,8.69293 -0.34501,11.17126 -1.11111,1.11111 -3.33333,2 -5,2 -1.66667,0 -3.88889,-0.88889 -5,-2 z m 8.60786,-3.57374 c 0.86994,-3.46611 -1.054,-7.42626 -3.60786,-7.42626 -2.55386,0 -4.4778,3.96015 -3.60786,7.42626 0.51208,2.04029 1.25986,2.57374 3.60786,2.57374 2.348,0 3.09578,-0.53345 3.60786,-2.57374 z m 6.05881,4.90707 c -1.57,-1.56999 -0.45175,-2.54035 2.29456,-1.99108 4.2819,0.85638 4.76858,-1.08733 1.04964,-4.19203 -2.35499,-1.96603 -3.11803,-3.34366 -2.86116,-5.16563 0.30347,-2.15247 0.93233,-2.52637 4.70449,-2.79718 3.25532,-0.2337 4.23833,0.0187 3.8951,1 -0.26148,0.74763 -1.59758,1.18869 -3.10419,1.02474 -3.6913,-0.4017 -3.46673,2.31161 0.35489,4.28785 3.18554,1.64731 4.02959,5.07041 1.8,7.3 -1.27573,1.27573 -7.01461,1.65205 -8.13333,0.53333 z M 32.334248,154.03538 c -5.067744,-2.04509 -5.356999,-3.65533 -5.356999,-29.82169 V 99.84543 l 6.024954,5.84077 c 6.84866,6.63928 12.981176,10.34076 17.13233,10.34076 2.695686,0 2.842716,0.22905 2.842716,4.42857 0,6.48543 1.570459,7.57143 10.948984,7.57143 9.029425,0 10.037424,-0.69979 10.803967,-7.50055 l 0.507154,-4.49945 h 25.869946 25.86995 v 4.42857 c 0,6.38827 1.6221,7.57143 10.3803,7.57143 8.79625,0 10.42735,-1.04002 10.82278,-6.90076 0.29,-4.29815 0.40455,-4.43202 4.91247,-5.74106 3.18215,-0.92405 6.90885,-3.39694 12,-7.96273 l 7.38445,-6.62243 0.26815,23.00064 c 0.16074,13.78667 -0.13716,24.06672 -0.74364,25.66186 -2.11922,5.57399 -2.06968,5.57024 -72.742392,5.50109 -35.630166,-0.0349 -65.74647,-0.45255 -66.92512,-0.92819 z M 47.91885,113.07873 c -1.40712,-0.42697 -3.65712,-1.36217 -5,-2.0782 C 39.395888,109.12206 28.02237,98.001657 26.376795,94.826619 25.32143,92.790355 24.977249,87.459376 24.977249,73.149199 v -18.97708 l 2.634859,-2.07258 c 2.608547,-2.051883 3.332983,-2.07258 72.545452,-2.07258 h 69.9106 l 2.45454,2.454545 c 2.43007,2.430062 2.45455,2.640033 2.45455,21.04966 0,13.982838 -0.34714,19.264899 -1.39955,21.295455 -1.79423,3.461874 -13.19698,14.423491 -17.10494,16.443211 -1.64753,0.85148 -4.12051,1.70767 -5.49551,1.90264 -2.42301,0.34357 -2.50879,0.15431 -2.78545,-6.14551 -0.35449,-8.072077 -1.4044,-9.000001 -10.18317,-9.000001 -9.48034,0 -11.03138,1.343697 -11.03138,9.556701 v 6.4433 h -25.8835 -25.88351 l -0.421586,-6.62089 c -0.528618,-8.301782 -1.766863,-9.379111 -10.780028,-9.379111 -9.480337,0 -11.031377,1.343697 -11.031377,9.556701 0,6.80823 -0.159574,6.98157 -5.058399,5.49507 z M 64.977249,45.842683 c 0,-4.35814 4.051528,-10.761614 8.433906,-13.329858 4.173606,-2.445896 4.598948,-2.485866 26.453611,-2.485866 23.670934,0 25.243344,0.272589 29.814754,5.168633 2.36219,2.529935 5.29773,8.790992 5.29773,11.299248 0,1.166531 -1.13343,1.522927 -4.75,1.493599 -4.24268,-0.03441 -4.96572,-0.381519 -6.76977,-3.25 l -2.01976,-3.21148 -20.89366,-0.270786 c -20.322561,-0.263384 -20.957525,-0.210786 -23.230234,1.924314 -1.285118,1.207305 -2.336577,2.791659 -2.336577,3.520786 0,0.924157 -1.514422,1.325686 -5,1.325686 -4.473941,0 -5,-0.229812 -5,-2.184276 z"
       id="path1" />
    <path
       style="fill:none;stroke:#000000;stroke-width:1px;stroke-linecap:butt;stroke-linejoin:miter;stroke-opacity:1"
       d="m 51.898327,108.91248 c 0.1287,4.40798 0.19305,4.37581 0.19305,4.37581 v 0"
       id="path3" />
    <path
       style="fill:none;stroke:#000000;stroke-width:0.4;stroke-linecap:butt;stroke-linejoin:miter;stroke-dasharray:none;stroke-opacity:1"
       d="m 75.450451,109.8536 c 0.008,2.25226 0.008,2.25226 0.008,2.25226 v 0"
       id="path4" />
    <path
       style="fill:#f5d805;stroke-width:0.0364019;stroke-dasharray:none"
       d="m 62.110731,128.11823 c -2.546165,-0.0628 -4.433228,-0.30037 -5.636762,-0.70972 -1.862712,-0.63355 -2.758082,-1.81713 -3.099429,-4.09709 -0.05246,-0.35037 -0.129982,-1.7837 -0.172281,-3.18517 -0.06742,-2.23396 -0.10007,-2.60984 -0.264782,-3.04866 -0.146953,-0.3915 -0.20155,-0.82 -0.250647,-1.96719 -0.05829,-1.36197 -0.04891,-1.50371 0.1314,-1.98563 0.268481,-0.71758 0.356835,-1.8167 0.413796,-5.14765 0.05223,-3.05449 0.131539,-4.05092 0.419267,-5.2678 0.270477,-1.14392 0.652887,-1.86761 1.352999,-2.56047 1.400747,-1.386244 3.168111,-1.791526 8.198496,-1.880035 5.78909,-0.101858 8.191507,0.303919 9.599971,1.621468 1.208025,1.130047 1.745478,2.821987 2.048481,6.448747 0.183518,2.19661 0.546182,8.20948 0.546182,9.05555 0,0.95182 -0.543158,5.89679 -0.821531,7.47931 -0.349452,1.98659 -0.883564,3.17623 -1.736761,3.86832 -1.107908,0.89871 -2.472761,1.20877 -5.935921,1.34847 -1.997882,0.0806 -2.51929,0.0836 -4.792478,0.0276 z"
       id="path5" />
    <path
       style="fill:none;stroke:#000000;stroke-width:0.5;stroke-linecap:butt;stroke-linejoin:miter;stroke-dasharray:none;stroke-opacity:1"
       d="m 126.72409,109.79721 c 0.0228,2.54813 0.0228,2.54813 0.0228,2.54813"
       id="path6" />
    <path
       style="fill:none;stroke:#000000;stroke-width:1px;stroke-linecap:butt;stroke-linejoin:miter;stroke-opacity:1"
       d="m 149.0658,118.12414 c 0,0 -0.0911,-0.0682 -0.0228,-5.84705 -0.091,-0.45502 -0.1365,-0.45502 -0.1365,-0.45502"
       id="path7" />
    <path
       style="fill:none;stroke:#000000;stroke-width:1px;stroke-linecap:butt;stroke-linejoin:miter;stroke-opacity:1"
       d="m 148.97475,111.70831 c 0.25026,-0.40952 0.25026,-0.40952 0.25026,-0.40952"
       id="path8" />
    <path
       style="fill:none;stroke:#000000;stroke-width:1px;stroke-linecap:butt;stroke-linejoin:miter;stroke-opacity:1"
       d="m 148.97475,117.48711 0.13651,-6.8026 0.1365,-0.18201"
       id="path9" />
    <path
       style="fill:#f5d805;stroke-width:0.0113756;stroke-dasharray:none"
       d="m 131.87724,127.70269 c -2.03274,-0.34996 -3.16963,-0.94248 -3.897,-2.03102 -0.47112,-0.70505 -0.75636,-1.64653 -0.89086,-2.94041 -0.081,-0.77878 -0.0866,-1.00439 -0.0971,-3.85064 l -0.0105,-2.86096 h -0.46445 -0.46446 v -0.98968 -0.98967 h 0.4664 0.4664 l 0.004,-0.84748 c 0.002,-0.46612 10e-4,-2.05045 -0.002,-3.52075 -0.008,-3.22032 0.0238,-4.40085 0.14756,-5.53991 0.31978,-2.94225 1.25033,-4.445116 3.24632,-5.242853 l 0.28787,-0.115054 h 7.18099 7.18099 l 0.1857,0.08142 c 0.60975,0.267359 1.17538,0.715185 1.55792,1.233457 0.6511,0.8821 1.03308,2.22245 1.23246,4.32468 0.0848,0.8939 0.11844,1.44633 0.21644,3.55192 0.0925,1.98694 0.17384,3.01986 0.28853,3.66294 0.0257,0.1439 0.0518,0.32307 0.0581,0.39815 l 0.0115,0.1365 -0.0632,-0.0569 c -0.0447,-0.0402 -0.0592,-0.0456 -0.0495,-0.0185 0.063,0.17584 0.0646,0.27024 0.0406,2.41589 -0.0135,1.20283 -0.0312,2.36869 -0.0394,2.59079 -0.0133,0.36124 -0.011,0.40384 0.0215,0.40384 0.0311,0 0.0374,0.0422 0.0434,0.29007 0.006,0.25125 -0.001,0.32452 -0.0541,0.54736 -0.11747,0.49449 -0.2008,1.20781 -0.29151,2.49562 -0.12581,1.78593 -0.27905,2.76205 -0.57047,3.6338 -0.40789,1.22021 -1.11356,2.0453 -2.19382,2.5651 -0.62147,0.29904 -1.26008,0.48433 -2.33199,0.67663 l -0.35264,0.0633 -5.21003,0.004 -5.21002,0.004 z"
       id="path10" />
    <path
       style="fill:none;stroke:#000000;stroke-width:1px;stroke-linecap:butt;stroke-linejoin:miter;stroke-opacity:1"
       d="m 126.50796,113.56253 c -0.0341,2.7984 -0.0683,2.78702 -0.0683,2.78702 v 0"
       id="path11" />
    <path
       style="fill:none;stroke:#000000;stroke-width:1px;stroke-linecap:butt;stroke-linejoin:miter;stroke-opacity:1"
       d="m 126.50796,116.03104 c 0,0 0.091,1.23994 -0.0341,0.37539 -0.12513,-0.86454 -0.0455,-0.87592 -0.0455,-0.87592 l -0.10238,1.58121"
       id="path12" />
  </g>
</svg>
