<?xml version="1.0" encoding="UTF-8" standalone="no"?>
<!-- Created with Inkscape (http://www.inkscape.org/) -->

<svg
   version="1.1"
   id="svg1"
   width="200"
   height="200"
   viewBox="0 0 200 200"
   sodipodi:docname="skills-logo.png"
   xml:space="preserve"
   inkscape:export-filename="skills-logo.svg"
   inkscape:export-xdpi="96"
   inkscape:export-ydpi="96"
   xmlns:inkscape="http://www.inkscape.org/namespaces/inkscape"
   xmlns:sodipodi="http://sodipodi.sourceforge.net/DTD/sodipodi-0.dtd"
   xmlns="http://www.w3.org/2000/svg"
   xmlns:svg="http://www.w3.org/2000/svg"><defs
     id="defs1" /><sodipodi:namedview
     id="namedview1"
     pagecolor="#505050"
     bordercolor="#eeeeee"
     borderopacity="1"
     inkscape:showpageshadow="0"
     inkscape:pageopacity="0"
     inkscape:pagecheckerboard="0"
     inkscape:deskcolor="#505050" /><g
     inkscape:groupmode="layer"
     inkscape:label="Image"
     id="g1"><path
       style="fill:#f5d805;fill-opacity:1;stroke-width:1.28666"
       d="m 90.098415,143.81941 -0.815465,-0.33939 -0.697032,-0.78059 -0.697033,-0.78059 -0.159054,-0.95365 c -0.08745,-0.52452 -0.46261,-3.3281 -0.833629,-6.23021 -0.371021,-2.90209 -0.701819,-5.28959 -0.73509,-5.30556 -0.03324,-0.0159 -1.46168,-0.45639 -3.174253,-0.9787 l -3.11377,-0.94967 -3.432015,-1.57222 -3.432014,-1.57223 -4.68515,3.49823 c -2.576839,1.92403 -5.031563,3.67094 -5.454958,3.88205 l -0.769821,0.38385 -1.169338,0.0167 -1.169353,0.0167 -0.868584,-0.60685 c -0.477714,-0.33379 -3.806567,-3.41078 -7.397456,-6.83776 l -6.528887,-6.23087 -0.118762,-1.35025 -0.1189,-1.35025 0.419395,-0.73416 c 0.23067,-0.40378 2.088103,-2.71846 4.127626,-5.14376 l 3.708245,-4.40961 -1.670184,-3.23528 -1.670186,-3.235273 -1.009195,-2.938184 c -0.555069,-1.616 -1.020893,-2.961777 -1.035169,-2.990606 -0.01421,-0.02881 -2.96408,-0.392847 -6.555107,-0.808906 L 34.514127,91.525928 33.850985,91.059376 C 33.486239,90.802685 32.939723,90.27961 32.636499,89.896893 l -0.551331,-0.695848 v -9.538207 -9.538209 l 0.551331,-0.695848 c 0.303224,-0.382715 0.848554,-0.90496 1.211837,-1.160543 l 0.660521,-0.464698 6.51501,-0.742536 c 3.58326,-0.408394 6.534238,-0.773238 6.557742,-0.810762 0.02345,-0.03753 0.496239,-1.388592 1.050535,-3.002371 l 1.007788,-2.934146 1.668572,-3.23425 1.668584,-3.234251 -3.441959,-4.109815 c -1.89309,-2.260398 -3.735903,-4.517954 -4.095143,-5.016792 l -0.653168,-0.906979 v -1.408602 -1.408602 l 7.292154,-6.871508 7.292156,-6.871507 h 1.502952 1.502951 l 1.229452,0.818928 c 0.676204,0.45041 3.067519,2.187278 5.314042,3.859705 l 4.084577,3.040778 3.433987,-1.573125 3.433988,-1.573125 3.113768,-0.949662 c 1.712573,-0.522313 3.138803,-0.960669 3.169399,-0.974125 0.03063,-0.01346 0.416897,-2.793095 0.858431,-6.176974 l 0.802788,-6.15251 0.495107,-0.624897 c 0.272313,-0.343693 0.827409,-0.858682 1.233563,-1.144423 l 0.73844,-0.519525 h 10.122107 10.12209 l 0.73845,0.519525 c 0.40614,0.285741 0.96042,0.799682 1.23173,1.142093 l 0.49326,0.622567 0.80016,6.150627 c 0.44008,3.382844 0.82721,6.163531 0.86026,6.179304 0.0331,0.01577 1.45672,0.454597 3.16364,0.975166 l 3.10352,0.946486 3.27567,1.496263 c 4.0412,1.845954 2.99572,2.085631 8.38361,-1.921918 2.52756,-1.879999 4.93988,-3.590299 5.36072,-3.800668 l 0.76517,-0.382487 h 1.14944 1.14945 l 0.492,0.257139 c 0.27061,0.141428 3.60993,3.203123 7.42068,6.803768 l 6.92868,6.546627 0.12013,1.365299 0.12014,1.365299 -0.41721,0.734157 c -0.22948,0.403785 -2.08908,2.715093 -4.13247,5.136241 l -3.71525,4.402086 1.67503,3.242808 1.67501,3.242808 1.00921,2.93818 c 0.55505,1.616001 1.02088,2.961774 1.03517,2.990609 0.0144,0.02883 2.96407,0.392842 6.5551,0.808906 l 6.52913,0.756479 0.66316,0.466553 c 0.36474,0.256604 0.91125,0.779685 1.21447,1.1624 l 0.55134,0.695848 v 9.538209 9.538207 l -0.55134,0.695848 c -0.30322,0.382717 -0.84973,0.905792 -1.21447,1.162405 l -0.66316,0.466551 -6.52913,0.756482 c -3.59103,0.41606 -6.54083,0.780066 -6.5551,0.808907 -0.0144,0.0288 -0.47948,1.372782 -1.03377,2.986561 l -1.0078,2.934152 -1.66857,3.234249 -1.66856,3.23425 3.44195,4.10982 c 1.89308,2.26039 3.73588,4.51793 4.09513,5.01678 l 0.65316,0.90699 v 1.40859 1.40863 l -7.29214,6.87148 -7.29217,6.87151 h -1.49482 -1.49484 l -0.96249,-0.61548 c -0.52939,-0.33853 -2.92514,-2.07502 -5.32391,-3.85892 l -4.36139,-3.24339 -3.43225,1.57232 -3.43224,1.57232 -3.11375,0.94966 c -1.71258,0.52232 -3.14083,0.96256 -3.17389,0.97834 -0.0331,0.0157 -0.42018,2.79645 -0.86026,6.17931 l -0.80017,6.15062 -0.49326,0.62256 c -0.27131,0.34241 -0.82541,0.85636 -1.23134,1.1421 l -0.73804,0.51953 -9.80785,0.0578 -9.807849,0.0578 z m 15.386225,-32.28103 2.66781,-0.37758 2.61164,-0.78333 2.61165,-0.78334 2.64068,-1.27244 2.64068,-1.27246 2.03888,-1.43214 c 2.59434,-1.82231 5.31695,-4.38689 7.24604,-6.825495 l 1.51201,-1.911345 1.24302,-2.267899 c 1.91968,-3.502441 2.86654,-6.203437 3.54825,-10.121598 l 0.37966,-2.182195 V 79.66279 77.017021 l -0.37966,-2.182194 c -0.68171,-3.918164 -1.62857,-6.619158 -3.54825,-10.1216 l -1.24302,-2.267895 -1.51201,-1.911353 c -1.92661,-2.435448 -4.65099,-5.002668 -7.23552,-6.818137 l -2.02836,-1.424786 -2.40673,-1.171324 c -3.79886,-1.848856 -6.74995,-2.755723 -10.91776,-3.355027 l -2.40663,-0.346058 -2.47523,-0.0045 -2.475253,-0.0045 -2.667793,0.377583 -2.667808,0.377584 -2.611654,0.786853 -2.61164,0.786852 -2.139224,1.006302 C 78.440416,53.970899 73.196143,58.915996 69.716071,65.43827 l -1.070715,2.006693 -0.841907,2.518268 -0.841892,2.518267 -0.386332,2.51978 -0.386345,2.51978 v 2.141812 2.141813 l 0.380953,2.524432 0.380952,2.524431 0.925536,2.662452 0.925551,2.662453 0.994243,1.860421 c 3.408842,6.378588 8.652785,11.292908 15.524388,14.548588 l 2.13874,1.0133 2.7589,0.80769 2.758901,0.80767 2.177252,0.32108 2.177251,0.32106 2.742653,0.0289 2.74264,0.0289 z"
       id="path2" /><path
       style="fill:#000000;stroke-width:0.972945"
       d="m 69.357907,180.90476 c -0.679665,-0.26564 -1.235754,-1.01878 -1.235754,-1.67364 v -1.19069 l 2.965809,0.42162 2.965808,0.42161 v -1.5204 -1.52039 l -2.965808,-1.48549 -2.965809,-1.48549 v -2.33556 -2.33556 l 2.069284,-1.07265 2.069284,-1.07265 2.379429,0.57843 2.379428,0.57843 v 0.9393 0.9393 H 74.05377 71.087962 v 0.89233 c 0,0.49078 1.334613,1.81281 2.965808,2.93782 l 2.965808,2.04548 v 2.35233 2.35235 l -2.535864,0.93382 c -2.736295,1.00766 -3.239138,1.03706 -5.125807,0.2997 z m 56.350363,0 c -0.67967,-0.26564 -1.23576,-1.01878 -1.23576,-1.67364 v -1.19069 l 2.96581,0.42162 2.96581,0.42161 v -1.5204 -1.52039 l -2.96581,-1.48549 -2.96581,-1.48549 v -2.33556 -2.33556 l 2.06929,-1.07265 2.06928,-1.07265 2.37943,0.57843 2.37943,0.57843 v 0.9393 0.9393 h -2.96581 -2.96581 v 0.89233 c 0,0.49078 1.33462,1.81281 2.96581,2.93782 l 2.96581,2.04548 v 2.35233 2.35235 l -2.53586,0.93382 c -2.73629,1.00766 -3.23914,1.03706 -5.12581,0.2997 z m -45.519043,-7.18894 0.290461,-6.86554 1.235754,-0.39578 1.235753,-0.39578 0.01473,3.67057 0.01473,3.67055 3.258869,-3.73078 3.258871,-3.73077 1.287703,0.41573 1.287696,0.41575 -2.660816,3.06284 -2.660814,3.06282 1.891849,2.64606 c 1.040515,1.45533 2.213483,3.18466 2.606591,3.84296 l 0.71475,1.19693 h -1.8224 -1.822401 l -1.762244,-2.88951 -1.762253,-2.88949 -0.922406,0.55216 -0.922416,0.55216 v 2.33735 2.33733 h -1.526215 -1.526215 z m 14.625202,-0.39577 v -7.26133 l 1.235754,0.39578 1.235753,0.39578 0.290466,6.86554 0.290461,6.86556 h -1.526219 -1.526215 z m 6.920231,0 v -7.26133 l 1.23575,0.39518 1.23575,0.39518 0.29432,5.90861 0.29433,5.90862 h 2.91864 2.91863 v 0.95753 0.95754 h -4.44872 -4.4487 z m 11.86322,0 v -7.26133 l 1.23576,0.39518 1.23575,0.39518 0.29432,5.90861 0.29433,5.90862 h 2.91864 2.91863 v 0.95753 0.95754 h -4.44871 -4.44872 z m -1.91079,-40.55554 -1.41651,-0.86818 0.18672,-13.71959 c 0.10272,-7.54577 0.4693,-18.603986 0.81465,-24.573811 l 0.62792,-10.854231 1.34331,-0.499279 1.34331,-0.499278 V 68.568082 55.38602 l -3.72889,-3.951162 -3.7289,-3.951163 h -5.20028 -5.200293 l -3.341705,1.352378 c -1.837941,0.743809 -4.270448,2.25193 -5.405561,3.351382 -2.968616,2.875327 -2.542419,1.521214 1.043351,-3.314992 l 3.107218,-4.190761 3.6519,-2.451242 c 2.008547,-1.348184 5.1673,-2.872195 7.01945,-3.38669 l 3.36754,-0.935448 h 10.79426 10.79427 l 5.25467,1.604338 5.25466,1.604337 1.83028,-1.604337 c 1.00667,-0.882387 2.54202,-1.604338 3.41189,-1.604338 h 1.58159 l 1.55352,1.504702 1.55352,1.504701 v 5.622532 5.622532 l -2.09139,1.418834 -2.09138,1.418834 -2.11018,-0.75061 -2.11017,-0.75061 -0.3159,-2.050234 -0.31592,-2.050234 h -3.91668 -3.91668 l -0.58049,1.465214 c -0.31927,0.805867 -1.63367,1.999687 -2.92088,2.652932 l -2.34039,1.187716 -0.52698,13.128239 -0.52699,13.128241 1.83436,1.77672 1.83437,1.77672 0.65592,16.108839 c 0.36076,8.85987 0.65593,19.24094 0.65593,23.06904 v 6.96022 l -1.55352,1.5047 -1.55352,1.50471 -6.60246,-0.0147 -6.60245,-0.0147 z m -49.805897,-2.74562 -2.656464,-2.68563 v -16.31478 c 0,-8.97314 0.287465,-21.493184 0.638824,-27.822333 l 0.638836,-11.507549 3.906454,0.850139 3.906454,0.85014 3.363533,-0.611167 3.363543,-0.611176 v 14.318227 c 0,7.875026 0.289809,20.171279 0.644025,27.325009 l 0.644036,13.00677 -3.03949,2.944 -3.039498,2.94397 h -2.856894 -2.856894 z m 9.058667,-4.43262 0.363104,-1.85178 -1.726971,-1.22311 -1.726971,-1.22311 -1.84064,0.95413 -1.84064,0.95412 v 1.7218 c 0,0.94699 0.317005,2.02884 0.704449,2.40411 l 0.704458,0.68231 2.500049,-0.28334 2.500057,-0.28334 z m -7.54912,-54.835945 -2.259906,-0.427961 -3.829383,-3.528326 -3.82938,-3.528329 -0.693805,-3.582089 -0.693806,-3.58209 0.616188,-3.181359 0.616191,-3.181357 3.201095,-3.177188 3.201095,-3.177187 0.287793,6.709644 0.287802,6.709642 3.784896,1.653115 3.784885,1.653115 3.094683,-1.550034 3.094682,-1.550033 v -6.678171 -6.678172 h 0.803645 c 0.442005,0 2.015732,1.225393 3.497173,2.723096 l 2.693528,2.723095 0.993773,3.486045 0.993772,3.486043 -1.033306,3.71682 -1.033308,3.71682 -2.716186,2.634591 c -3.809592,3.695144 -9.831023,5.563001 -14.862121,4.61027 z"
       id="path1" /></g></svg>
